<svg xmlns="http://www.w3.org/2000/svg" viewBox="0 0 210.96146 61" height="61" width="210.961"><path d="M95.5 36.5V12h3c2.707 0 3 .312 3 3.191 0 2.71.188 2.958 1.25 1.646 3.67-4.536 12.592-6.368 19.05-3.913 1.708.65 3.74.454 6.827-.656 5.335-1.918 10.21-1.207 15.272 2.228l3.601 2.444v-2.47c0-2.078.476-2.47 3-2.47h3v37h-3c-2.543 0-3-.386-3-2.53v-2.53l-2.841 2.1c-4.27 3.158-10.03 4.135-15.782 2.677-3.666-.93-5.994-.965-9.377-.14-5.373 1.308-11.555.188-14.564-2.638-1.136-1.066-2.373-1.939-2.75-1.939-.378 0-.686 3.825-.686 8.5V61h-6V36.5zm21.844 6.617c1.111-.704 1.068-1.387-.25-3.935-.902-1.744-1.594-5.513-1.594-8.682 0-3.169.692-6.938 1.594-8.682 1.936-3.744.586-5.174-4.094-4.334-6.76 1.214-12.261 8.644-11.077 14.958 1.391 7.414 10.556 13.759 15.421 10.675zm23.189-1.634c5.791-2.995 7.781-11.995 4.017-18.17-2.77-4.54-5.68-5.771-12.826-5.424-2.212.108-2.231.196-.696 3.165 2.476 4.788 2.946 11.875 1.083 16.333-.886 2.122-1.611 4.252-1.611 4.735 0 1.435 6.868.998 10.033-.639zM126.5 30.5c0-3.351-.521-5.688-1.438-6.449-2.325-1.929-4.187 5.526-2.59 10.366 1.75 5.303 4.028 3.088 4.028-3.917zm44.358 18.543c-12.027-2.858-17.888-16.119-12.262-27.741 2.421-5.002 8.635-9.188 14.881-10.026 5.33-.715 14.097 3.49 16.971 8.14 2.714 4.392 2.65 4.584-1.554 4.584-2.642 0-4.125-.66-5.546-2.466-1.066-1.356-3.483-2.891-5.37-3.412-6.385-1.764-11.574.945-14.005 7.31C159.22 37.878 173.093 48.787 182.5 40c2.262-2.113 4.215-3 6.606-3 1.867 0 3.394.347 3.394.772 0 1.519-6.23 8.295-8.84 9.615-3.66 1.852-9.047 2.549-12.802 1.656zm31.741-.597c-5.97-2.591-6.032-2.866-6.067-26.696L196.5 0h3c3 0 3 0 3 6v6h3.833c4.608 0 5.018.328 4.407 3.524-.407 2.128-1.018 2.476-4.357 2.476H202.5v11c0 9.667.242 11.242 2 13 1.1 1.1 2.9 2 4 2 1.556 0 2 .667 2 3 0 2.456-.408 2.993-2.25 2.96-1.238-.02-3.78-.702-5.65-1.514zM.5 44.2c0-5.424 1.233-7.2 5-7.2 3.593 0 5 1.744 5 6.2 0 3.676.114 3.8 3.5 3.8 1.925 0 3.5.45 3.5 1 0 .588-3.5 1-8.5 1H.5v-4.8zm9-.5c0-3.662-1.49-5.7-4.165-5.7-2.11 0-3.835 2.894-3.835 6.434 0 2.327.373 2.566 4 2.566 3.859 0 4-.117 4-3.3zm15.227-13.45L25 12.5h6l.273 17.75.273 17.75h-7.092l.273-17.75zm11.773-.316V11.867l2.75.317c1.976.227 2.667.808 2.456 2.066-.161.963.176 1.75.75 1.75.574 0 1.044-.378 1.044-.84 0-1.556 5.06-3.16 9.97-3.16 3.854 0 5.558.573 8.125 2.734 2.197 1.848 3.385 2.327 3.667 1.479 1.246-3.738 14.013-5.654 19.048-2.86 5.254 2.915 6.176 6.033 6.183 20.897L90.5 48h-5.84l-.33-13.089c-.329-13.059-.336-13.095-3.254-15.602-3.694-3.175-8.964-2.656-12.326 1.213-2.074 2.387-2.25 3.563-2.25 15.034V48h-5.84l-.33-13.089c-.329-13.059-.336-13.095-3.254-15.602-3.694-3.175-8.964-2.656-12.326 1.213-2.074 2.387-2.25 3.563-2.25 15.034V48h-6V29.934zm-36 3.114c0-.524 2.057-2.367 4.57-4.097l4.572-3.144-4.561-3.154C2.572 20.92.515 19.163.51 18.75c-.006-.413 3.928-.669 8.74-.57l8.75.18-7.5.57-7.5.57 4.25 2.883c2.337 1.585 4.25 3.167 4.25 3.514S9.7 27.64 7.5 29s-4.001 2.703-4.002 2.986c-.001.283 3.149.365 7 .182 4.56-.216 7.002.045 7.002.75C17.5 33.609 14.43 34 9 34c-4.714 0-8.5-.424-8.5-.952zM8.5 13L0 12.373l8.75-.187c5.29-.112 8.75.21 8.75.814 0 .55-.113.916-.25.814-.137-.103-4.075-.469-8.75-.814z" opacity=".986"/></svg>